<?xml version="1.0" encoding="UTF-8" standalone="no"?><svg xmlns:svg="http://www.w3.org/2000/svg" xmlns="http://www.w3.org/2000/svg" xmlns:xlink="http://www.w3.org/1999/xlink" version="1.0" width="224px" height="28px" viewBox="0 0 128 16" xml:space="preserve">
  <g><path fill="#f5f5f5" d="M-84.693,15.459a0.9,0.9,0,0,1-.195.019,1.421,1.421,0,0,1-.263-0.029,0.212,0.212,0,0,0,.109-0.086l-0.085-.012,0-.067,0.136,0,0.937-2.03a0.516,0.516,0,0,0,.119-0.012,0.7,0.7,0,0,1-.2-0.01c0.007-.019,1.014-2.246,1.042-2.295a0.209,0.209,0,0,1,.112-0.01l0.088-.574-0.078,0s0.173-1.207.151-1.241-1.344.031-2.239-.026a9.275,9.275,0,0,1-1.55-.2,0.206,0.206,0,0,0-.265.069c-0.068.076-1.227,1.614-1.327,1.743a0.22,0.22,0,0,1-.2.129l-0.591,0,0.531-2.14a0.834,0.834,0,0,1-.248-0.043,0.123,0.123,0,0,1-.019-0.1,3.973,3.973,0,0,1-.48-0.067,0.169,0.169,0,0,1-.044-0.065,2.127,2.127,0,0,1-.477-0.139h0a2.127,2.127,0,0,1,.477-0.139,0.169,0.169,0,0,1,.044-0.065,3.973,3.973,0,0,1,.48-0.067,0.123,0.123,0,0,1,.019-0.1,0.834,0.834,0,0,1,.248-0.043L-89,5.728l0.591,0a0.22,0.22,0,0,1,.2.129c0.1,0.129,1.258,1.666,1.327,1.743a0.206,0.206,0,0,0,.265.069,9.275,9.275,0,0,1,1.55-.2c0.9-.057,2.218.007,2.239-0.026s-0.151-1.241-.151-1.241l0.078,0-0.088-.574a0.209,0.209,0,0,1-.112-0.01c-0.028-.049-1.034-2.276-1.042-2.295a0.7,0.7,0,0,1,.2-0.01A0.519,0.519,0,0,0-84.055,3.3l-0.937-2.03-0.136,0,0-.067,0.085-.012a0.212,0.212,0,0,0-.109-0.086,1.426,1.426,0,0,1,.263-0.029,0.9,0.9,0,0,1,.195.019s-0.022-.069.071-0.062a1.887,1.887,0,0,1,.329.184,0.228,0.228,0,0,0,.069.011,0.113,0.113,0,0,1,.074.058,0.137,0.137,0,0,0,.071,0s0.587,0.673,1.507,1.838,2.045,2.54,2.045,2.54a1.243,1.243,0,0,0,.156-0.013c0.091-.013.13-0.022,0.13-0.022a0.149,0.149,0,0,1,.081-0.089A3.468,3.468,0,0,1-79.516,5.5a2.013,2.013,0,0,1,.48.041,0.2,0.2,0,0,1,.078.166,3.4,3.4,0,0,1-.007.5,0.126,0.126,0,0,1-.133.137,6.094,6.094,0,0,1-.646.006,1.229,1.229,0,0,0-.243-0.019c-0.006.016,0.269,0.293,0.38,0.446a2.259,2.259,0,0,0,.412.446c0.071,0.032.081,0.035,0.016,0.054a0.233,0.233,0,0,1-.175-0.01,0.123,0.123,0,0,0-.13-0.013,0.219,0.219,0,0,0,.094.105,1.238,1.238,0,0,0,.146.013,0.552,0.552,0,0,0,.2.061C-78.575,7.419-77.88,7.4-76.361,7.4a11.133,11.133,0,0,1,2.979.214A2.683,2.683,0,0,1-72.324,8a0.449,0.449,0,0,1,.188.273h0a0.449,0.449,0,0,1-.188.273,2.683,2.683,0,0,1-1.058.391,11.132,11.132,0,0,1-2.979.214c-1.519,0-2.213-.019-2.677-0.032a0.552,0.552,0,0,0-.2.061,1.24,1.24,0,0,0-.146.013,0.219,0.219,0,0,0-.094.105,0.123,0.123,0,0,0,.13-0.013,0.233,0.233,0,0,1,.175-0.01c0.065,0.019.055,0.022-.016,0.054a2.259,2.259,0,0,0-.412.446c-0.11.153-.386,0.43-0.38,0.446a1.232,1.232,0,0,0,.243-0.019,6.072,6.072,0,0,1,.646.006,0.126,0.126,0,0,1,.133.137,3.4,3.4,0,0,1,.007.5,0.2,0.2,0,0,1-.078.166,2.01,2.01,0,0,1-.48.041,3.463,3.463,0,0,1-.646-0.045,0.149,0.149,0,0,1-.081-0.089s-0.039-.01-0.13-0.022a1.238,1.238,0,0,0-.156-0.013s-1.126,1.377-2.045,2.54S-84.08,15.27-84.08,15.27a0.138,0.138,0,0,0-.071,0,0.112,0.112,0,0,1-.074.058,0.228,0.228,0,0,0-.069.011,1.882,1.882,0,0,1-.329.184C-84.715,15.528-84.693,15.459-84.693,15.459ZM-84.01,1.516l-0.105-.135-0.016.012,0.106,0.136Zm0.211,0.27L-84,1.531l-0.014.013,0.2,0.254Zm0.211,0.271-0.2-.256-0.015.012,0.2,0.254ZM-83.322,2.4l-0.254-.326-0.017.01,0.255,0.327Zm0.246,0.315-0.234-.3-0.016.011,0.234,0.3Zm0.248,0.318-0.236-.3-0.016.012,0.236,0.3Zm0.257,0.329-0.245-.314-0.016.011,0.246,0.316Zm0.259,0.332-0.247-.317-0.014.013L-82.329,3.7Zm0.257,0.329L-82.3,3.707l-0.016.011,0.244,0.313ZM-81.8,4.348l-0.243-.311-0.017.01,0.244,0.313Zm0.245,0.314-0.233-.3-0.016.011,0.234,0.3Zm0.245,0.314-0.233-.3-0.016.011,0.232,0.3Zm0.288,0.37L-81.3,4.991-81.316,5l0.275,0.353Zm0.076,0.1-0.063-.081-0.018.008,0.063,0.081Zm0.236,0.3-0.224-.287-0.019.008,0.227,0.291Zm0,5.067-0.016-.012-0.227.291,0.019,0.008Zm-0.236.3-0.019-.008-0.063.08L-81.01,11.2Zm-0.076.1L-81.04,11.2l-0.275.353,0.017,0.01Zm-0.288.37-0.017-.01-0.232.3,0.016,0.011Zm-0.245.314-0.016-.011-0.234.3,0.016,0.011Zm-0.245.314-0.016-.011-0.244.313,0.017,0.01Zm-0.255.327-0.017-.01-0.244.313L-82.3,12.85Zm-0.257.329-0.016-.011-0.245.314,0.014,0.013Zm-0.259.332-0.014-.013-0.246.316,0.016,0.011Zm-0.257.329-0.016-.011-0.236.3,0.016,0.011Zm-0.248.318-0.016-.011-0.234.3,0.016,0.011Zm-0.246.315-0.016-.011-0.255.327,0.017,0.01Zm-0.266.341-0.017-.01-0.2.254,0.015,0.012Zm-0.211.271-0.015-.012-0.2.254L-84,15.026Zm-0.211.27-0.015-.013-0.106.136,0.016,0.012Z"/>
  <path fill="#d6d6d6" d="M-66.657,15.459a0.9,0.9,0,0,1-.195.019,1.423,1.423,0,0,1-.263-0.029A0.212,0.212,0,0,0-67,15.363l-0.085-.012,0-.067,0.136,0,0.937-2.03A0.515,0.515,0,0,0-65.9,13.24a0.7,0.7,0,0,1-.2-0.01c0.007-.019,1.014-2.246,1.042-2.295a0.208,0.208,0,0,1,.112-0.01l0.088-.574-0.078,0s0.173-1.207.151-1.241-1.344.031-2.239-.026a9.273,9.273,0,0,1-1.55-.2,0.206,0.206,0,0,0-.265.069c-0.068.076-1.227,1.614-1.327,1.743a0.22,0.22,0,0,1-.2.129l-0.591,0,0.531-2.14a0.835,0.835,0,0,1-.248-0.043,0.123,0.123,0,0,1-.019-0.1,3.973,3.973,0,0,1-.48-0.067,0.168,0.168,0,0,1-.044-0.065A2.129,2.129,0,0,1-71.7,8.279h0a2.129,2.129,0,0,1,.477-0.139,0.168,0.168,0,0,1,.044-0.065,3.973,3.973,0,0,1,.48-0.067,0.123,0.123,0,0,1,.019-0.1,0.835,0.835,0,0,1,.248-0.043l-0.531-2.14,0.591,0a0.22,0.22,0,0,1,.2.129c0.1,0.129,1.258,1.666,1.327,1.743a0.205,0.205,0,0,0,.265.069,9.273,9.273,0,0,1,1.55-.2c0.9-.057,2.218.007,2.239-0.026s-0.151-1.241-.151-1.241l0.078,0-0.088-.574a0.208,0.208,0,0,1-.112-0.01C-65.09,5.572-66.1,3.345-66.1,3.326a0.7,0.7,0,0,1,.2-0.01A0.517,0.517,0,0,0-66.019,3.3l-0.937-2.03-0.136,0,0-.067L-67,1.193a0.212,0.212,0,0,0-.11-0.086,1.428,1.428,0,0,1,.263-0.029,0.9,0.9,0,0,1,.195.019s-0.022-.069.071-0.062a1.883,1.883,0,0,1,.329.184,0.229,0.229,0,0,0,.069.011,0.112,0.112,0,0,1,.073.058,0.137,0.137,0,0,0,.071,0s0.587,0.673,1.507,1.838,2.045,2.54,2.045,2.54a1.241,1.241,0,0,0,.156-0.013c0.091-.013.13-0.022,0.13-0.022a0.149,0.149,0,0,1,.081-0.089A3.466,3.466,0,0,1-61.48,5.5a2.015,2.015,0,0,1,.48.041,0.2,0.2,0,0,1,.078.166,3.43,3.43,0,0,1-.006.5,0.126,0.126,0,0,1-.133.137,6.094,6.094,0,0,1-.646.006,1.23,1.23,0,0,0-.244-0.019c-0.006.016,0.269,0.293,0.38,0.446a2.259,2.259,0,0,0,.412.446c0.071,0.032.081,0.035,0.016,0.054a0.233,0.233,0,0,1-.175-0.01,0.123,0.123,0,0,0-.13-0.013,0.219,0.219,0,0,0,.094.105,1.238,1.238,0,0,0,.146.013,0.552,0.552,0,0,0,.2.061c0.464-.013,1.159-0.028,2.677-0.032a11.132,11.132,0,0,1,2.979.214A2.682,2.682,0,0,1-54.288,8a0.449,0.449,0,0,1,.188.273h0a0.449,0.449,0,0,1-.188.273,2.681,2.681,0,0,1-1.058.391,11.132,11.132,0,0,1-2.979.214c-1.519,0-2.213-.019-2.677-0.032a0.552,0.552,0,0,0-.2.061,1.24,1.24,0,0,0-.146.013,0.219,0.219,0,0,0-.094.105,0.123,0.123,0,0,0,.13-0.013,0.233,0.233,0,0,1,.175-0.01c0.065,0.019.055,0.022-.016,0.054a2.259,2.259,0,0,0-.412.446c-0.11.153-.386,0.43-0.38,0.446a1.233,1.233,0,0,0,.244-0.019,6.072,6.072,0,0,1,.646.006,0.126,0.126,0,0,1,.133.137,3.431,3.431,0,0,1,.006.5,0.2,0.2,0,0,1-.078.166,2.012,2.012,0,0,1-.48.041,3.46,3.46,0,0,1-.646-0.045,0.149,0.149,0,0,1-.081-0.089s-0.039-.01-0.13-0.022a1.236,1.236,0,0,0-.156-0.013s-1.126,1.377-2.045,2.54-1.507,1.838-1.507,1.838a0.138,0.138,0,0,0-.071,0,0.112,0.112,0,0,1-.073.058,0.228,0.228,0,0,0-.069.011,1.878,1.878,0,0,1-.329.184C-66.679,15.528-66.657,15.459-66.657,15.459Zm0.683-13.943-0.105-.135-0.016.012,0.106,0.136Zm0.211,0.27-0.2-.255-0.014.013,0.2,0.254Zm0.211,0.271-0.2-.256-0.015.012,0.2,0.254ZM-65.286,2.4l-0.254-.326-0.017.01L-65.3,2.409Zm0.246,0.315-0.234-.3-0.016.011,0.234,0.3Zm0.248,0.318-0.236-.3-0.016.012,0.236,0.3Zm0.257,0.329-0.245-.314-0.016.011,0.246,0.316Zm0.259,0.332-0.247-.317-0.014.013L-64.292,3.7Zm0.257,0.329-0.245-.314-0.016.011,0.244,0.313Zm0.255,0.327-0.243-.311-0.017.01,0.244,0.313Zm0.245,0.314-0.233-.3-0.016.011,0.234,0.3Zm0.245,0.314-0.233-.3-0.016.011,0.232,0.3Zm0.289,0.37-0.277-.354L-63.279,5-63,5.353Zm0.075,0.1-0.063-.081-0.018.008,0.063,0.081Zm0.236,0.3L-62.9,5.458l-0.019.008,0.227,0.291Zm0,5.067L-62.69,10.8l-0.227.291L-62.9,11.1Zm-0.236.3-0.019-.008-0.063.08,0.018,0.008Zm-0.075.1L-63,11.2l-0.275.353,0.017,0.01Zm-0.289.37-0.017-.01-0.232.3,0.016,0.011Zm-0.245.314-0.016-.011-0.234.3,0.016,0.011Zm-0.245.314L-63.78,12.2l-0.244.313,0.017,0.01Zm-0.255.327-0.017-.01-0.244.313,0.016,0.011Zm-0.257.329-0.016-.011-0.245.314,0.014,0.013Zm-0.259.332-0.014-.013L-64.8,13.5l0.016,0.011Zm-0.257.329-0.016-.011-0.236.3,0.016,0.011Zm-0.248.318-0.016-.011-0.234.3,0.016,0.011Zm-0.246.315-0.016-.011-0.255.327,0.017,0.01Zm-0.266.341-0.017-.01-0.2.254,0.015,0.012Zm-0.211.271-0.015-.012-0.2.254,0.014,0.013Zm-0.211.27-0.014-.013-0.106.136,0.016,0.012Z"/>
  <path fill="#a3a3a3" d="M-48.62,15.459a0.9,0.9,0,0,1-.195.019,1.422,1.422,0,0,1-.263-0.029,0.212,0.212,0,0,0,.109-0.086l-0.085-.012,0-.067,0.136,0,0.937-2.03a0.516,0.516,0,0,0,.119-0.012,0.7,0.7,0,0,1-.2-0.01c0.007-.019,1.014-2.246,1.042-2.295a0.209,0.209,0,0,1,.112-0.01l0.088-.574-0.078,0s0.173-1.207.151-1.241-1.344.031-2.239-.026a9.271,9.271,0,0,1-1.55-.2,0.206,0.206,0,0,0-.265.069c-0.068.076-1.227,1.614-1.327,1.743a0.22,0.22,0,0,1-.2.129l-0.591,0,0.531-2.14a0.835,0.835,0,0,1-.248-0.043,0.123,0.123,0,0,1-.019-0.1,3.973,3.973,0,0,1-.48-0.067,0.169,0.169,0,0,1-.044-0.065,2.127,2.127,0,0,1-.476-0.139h0a2.127,2.127,0,0,1,.476-0.139,0.169,0.169,0,0,1,.044-0.065,3.973,3.973,0,0,1,.48-0.067,0.123,0.123,0,0,1,.019-0.1A0.835,0.835,0,0,1-52.4,7.868l-0.531-2.14,0.591,0a0.22,0.22,0,0,1,.2.129c0.1,0.129,1.258,1.666,1.327,1.743a0.206,0.206,0,0,0,.265.069,9.271,9.271,0,0,1,1.55-.2c0.9-.057,2.217.007,2.239-0.026S-46.9,6.207-46.9,6.207l0.078,0-0.088-.574a0.209,0.209,0,0,1-.112-0.01c-0.028-.049-1.034-2.276-1.042-2.295a0.7,0.7,0,0,1,.2-0.01A0.518,0.518,0,0,0-47.983,3.3l-0.937-2.03-0.136,0,0-.067,0.085-.012a0.212,0.212,0,0,0-.109-0.086,1.426,1.426,0,0,1,.263-0.029,0.9,0.9,0,0,1,.195.019s-0.022-.069.071-0.062a1.887,1.887,0,0,1,.329.184,0.228,0.228,0,0,0,.069.011,0.113,0.113,0,0,1,.074.058,0.137,0.137,0,0,0,.071,0S-47.42,1.96-46.5,3.125s2.045,2.54,2.045,2.54A1.243,1.243,0,0,0-44.3,5.653c0.091-.013.13-0.022,0.13-0.022a0.149,0.149,0,0,1,.081-0.089A3.466,3.466,0,0,1-43.443,5.5a2.013,2.013,0,0,1,.48.041,0.2,0.2,0,0,1,.078.166,3.4,3.4,0,0,1-.007.5,0.126,0.126,0,0,1-.133.137,6.1,6.1,0,0,1-.646.006,1.229,1.229,0,0,0-.243-0.019c-0.006.016,0.269,0.293,0.38,0.446a2.262,2.262,0,0,0,.412.446c0.071,0.032.081,0.035,0.016,0.054a0.232,0.232,0,0,1-.175-0.01,0.123,0.123,0,0,0-.13-0.013,0.218,0.218,0,0,0,.094.105,1.236,1.236,0,0,0,.146.013,0.553,0.553,0,0,0,.2.061C-42.5,7.419-41.807,7.4-40.289,7.4a11.132,11.132,0,0,1,2.979.214A2.683,2.683,0,0,1-36.251,8a0.448,0.448,0,0,1,.188.273h0a0.448,0.448,0,0,1-.188.273,2.683,2.683,0,0,1-1.058.391,11.132,11.132,0,0,1-2.979.214c-1.519,0-2.213-.019-2.677-0.032a0.553,0.553,0,0,0-.2.061,1.238,1.238,0,0,0-.146.013,0.218,0.218,0,0,0-.094.105,0.123,0.123,0,0,0,.13-0.013,0.232,0.232,0,0,1,.175-0.01c0.065,0.019.055,0.022-.016,0.054a2.262,2.262,0,0,0-.412.446c-0.11.153-.386,0.43-0.38,0.446a1.232,1.232,0,0,0,.243-0.019,6.074,6.074,0,0,1,.646.006,0.126,0.126,0,0,1,.133.137,3.4,3.4,0,0,1,.007.5,0.2,0.2,0,0,1-.078.166,2.01,2.01,0,0,1-.48.041,3.46,3.46,0,0,1-.646-0.045,0.149,0.149,0,0,1-.081-0.089s-0.039-.01-0.13-0.022a1.238,1.238,0,0,0-.156-0.013s-1.126,1.377-2.045,2.54-1.507,1.838-1.507,1.838a0.138,0.138,0,0,0-.071,0,0.112,0.112,0,0,1-.074.058,0.228,0.228,0,0,0-.069.011,1.882,1.882,0,0,1-.329.184C-48.642,15.528-48.62,15.459-48.62,15.459Zm0.683-13.943-0.105-.135-0.015.012,0.106,0.136Zm0.211,0.27-0.2-.255-0.015.013,0.2,0.254Zm0.211,0.271-0.2-.256-0.015.012,0.2,0.254ZM-47.249,2.4L-47.5,2.072l-0.017.01,0.255,0.327ZM-47,2.713l-0.234-.3-0.016.011,0.234,0.3Zm0.248,0.318-0.236-.3-0.015.012,0.236,0.3ZM-46.5,3.36l-0.245-.314-0.016.011,0.246,0.316Zm0.259,0.332-0.247-.317-0.014.013L-46.256,3.7Zm0.257,0.329-0.245-.314-0.016.011L-46,4.031Zm0.255,0.327-0.243-.311-0.017.01,0.244,0.313Zm0.245,0.314-0.233-.3-0.016.011,0.234,0.3Zm0.245,0.314-0.233-.3-0.016.011,0.232,0.3Zm0.289,0.37-0.277-.354L-45.243,5l0.275,0.353Zm0.075,0.1-0.063-.081-0.018.008,0.063,0.081Zm0.236,0.3-0.224-.287-0.019.008,0.227,0.291Zm0,5.067-0.015-.012-0.227.291,0.019,0.008Zm-0.236.3-0.019-.008-0.063.08,0.018,0.008Zm-0.075.1-0.018-.008-0.275.353,0.017,0.01Zm-0.289.37-0.017-.01-0.232.3,0.016,0.011Zm-0.245.314-0.016-.011-0.234.3,0.016,0.011Zm-0.245.314-0.016-.011-0.244.313,0.017,0.01Zm-0.255.327L-46,12.526l-0.244.313,0.016,0.011Zm-0.257.329-0.016-.011-0.245.314,0.014,0.013ZM-46.5,13.2l-0.014-.013-0.246.316,0.016,0.011Zm-0.257.329-0.016-.011-0.236.3,0.015,0.011ZM-47,13.844l-0.015-.011-0.234.3,0.016,0.011Zm-0.246.315-0.016-.011-0.255.327,0.017,0.01Zm-0.266.341-0.017-.01-0.2.254,0.015,0.012Zm-0.211.271-0.015-.012-0.2.254,0.015,0.013Zm-0.211.27-0.015-.013-0.106.136,0.015,0.012Z"/>
  <path fill="#5c5c5c" d="M-30.584,15.459a0.9,0.9,0,0,1-.195.019,1.425,1.425,0,0,1-.263-0.029,0.212,0.212,0,0,0,.11-0.086l-0.085-.012,0-.067,0.136,0,0.937-2.03a0.516,0.516,0,0,0,.119-0.012,0.7,0.7,0,0,1-.2-0.01c0.007-.019,1.014-2.246,1.042-2.295a0.209,0.209,0,0,1,.112-0.01l0.088-.574-0.078,0s0.173-1.207.151-1.241-1.344.031-2.239-.026a9.273,9.273,0,0,1-1.55-.2,0.206,0.206,0,0,0-.265.069C-32.84,9.031-34,10.568-34.1,10.7a0.22,0.22,0,0,1-.2.129l-0.591,0,0.531-2.14a0.834,0.834,0,0,1-.248-0.043,0.123,0.123,0,0,1-.02-0.1,3.973,3.973,0,0,1-.479-0.067,0.169,0.169,0,0,1-.044-0.065,2.127,2.127,0,0,1-.476-0.139h0a2.127,2.127,0,0,1,.476-0.139,0.169,0.169,0,0,1,.044-0.065,3.973,3.973,0,0,1,.479-0.067,0.123,0.123,0,0,1,.02-0.1,0.834,0.834,0,0,1,.248-0.043l-0.531-2.14,0.591,0a0.22,0.22,0,0,1,.2.129C-34,5.989-32.84,7.526-32.772,7.6a0.206,0.206,0,0,0,.265.069,9.273,9.273,0,0,1,1.55-.2c0.9-.057,2.218.007,2.239-0.026s-0.151-1.241-.151-1.241l0.078,0-0.088-.574a0.209,0.209,0,0,1-.112-0.01c-0.028-.049-1.035-2.276-1.042-2.295a0.7,0.7,0,0,1,.2-0.01A0.519,0.519,0,0,0-29.946,3.3l-0.937-2.03-0.136,0,0-.067,0.085-.012a0.212,0.212,0,0,0-.11-0.086,1.429,1.429,0,0,1,.263-0.029,0.9,0.9,0,0,1,.195.019s-0.022-.069.07-0.062a1.883,1.883,0,0,1,.329.184,0.229,0.229,0,0,0,.069.011,0.113,0.113,0,0,1,.074.058,0.137,0.137,0,0,0,.071,0s0.587,0.673,1.507,1.838,2.045,2.54,2.045,2.54a1.243,1.243,0,0,0,.156-0.013c0.091-.013.13-0.022,0.13-0.022a0.149,0.149,0,0,1,.081-0.089A3.468,3.468,0,0,1-25.407,5.5a2.013,2.013,0,0,1,.48.041,0.2,0.2,0,0,1,.078.166,3.416,3.416,0,0,1-.006.5,0.126,0.126,0,0,1-.133.137,6.094,6.094,0,0,1-.646.006,1.229,1.229,0,0,0-.243-0.019c-0.006.016,0.269,0.293,0.38,0.446a2.259,2.259,0,0,0,.412.446c0.071,0.032.081,0.035,0.016,0.054a0.233,0.233,0,0,1-.175-0.01,0.123,0.123,0,0,0-.13-0.013,0.219,0.219,0,0,0,.094.105,1.238,1.238,0,0,0,.146.013,0.552,0.552,0,0,0,.2.061c0.464-.013,1.159-0.028,2.677-0.032a11.133,11.133,0,0,1,2.979.214A2.683,2.683,0,0,1-18.215,8a0.449,0.449,0,0,1,.188.273h0a0.449,0.449,0,0,1-.188.273,2.683,2.683,0,0,1-1.058.391,11.133,11.133,0,0,1-2.979.214c-1.519,0-2.213-.019-2.677-0.032a0.552,0.552,0,0,0-.2.061,1.24,1.24,0,0,0-.146.013,0.219,0.219,0,0,0-.094.105,0.123,0.123,0,0,0,.13-0.013,0.233,0.233,0,0,1,.175-0.01C-25,9.3-25.014,9.3-25.085,9.336a2.259,2.259,0,0,0-.412.446c-0.11.153-.386,0.43-0.38,0.446a1.232,1.232,0,0,0,.243-0.019,6.072,6.072,0,0,1,.646.006,0.126,0.126,0,0,1,.133.137,3.417,3.417,0,0,1,.006.5,0.2,0.2,0,0,1-.078.166,2.01,2.01,0,0,1-.48.041,3.463,3.463,0,0,1-.646-0.045,0.149,0.149,0,0,1-.081-0.089s-0.039-.01-0.13-0.022a1.238,1.238,0,0,0-.156-0.013s-1.126,1.377-2.045,2.54-1.507,1.838-1.507,1.838a0.138,0.138,0,0,0-.071,0,0.112,0.112,0,0,1-.074.058,0.228,0.228,0,0,0-.069.011,1.878,1.878,0,0,1-.329.184C-30.606,15.528-30.584,15.459-30.584,15.459ZM-29.9,1.516l-0.105-.135-0.015.012,0.106,0.136Zm0.211,0.27-0.2-.255-0.014.013,0.2,0.254Zm0.211,0.271-0.2-.256-0.015.012,0.2,0.254ZM-29.213,2.4l-0.254-.326-0.017.01,0.255,0.327Zm0.245,0.315-0.234-.3-0.016.011,0.234,0.3Zm0.248,0.318-0.236-.3-0.015.012,0.236,0.3Zm0.257,0.329-0.245-.314-0.016.011,0.246,0.316ZM-28.2,3.692l-0.247-.317-0.014.013L-28.22,3.7Zm0.257,0.329-0.245-.314-0.016.011,0.244,0.313Zm0.255,0.327-0.243-.311-0.017.01,0.244,0.313Zm0.245,0.314-0.233-.3-0.016.011,0.234,0.3ZM-27.2,4.975l-0.233-.3-0.016.011,0.232,0.3Zm0.288,0.37-0.277-.354L-27.207,5l0.275,0.353Zm0.075,0.1L-26.9,5.361l-0.018.008,0.063,0.081Zm0.236,0.3-0.224-.287-0.019.008,0.227,0.291Zm0,5.067-0.015-.012-0.227.291,0.019,0.008Zm-0.236.3-0.019-.008-0.063.08L-26.9,11.2Zm-0.075.1-0.018-.008-0.275.353,0.017,0.01Zm-0.288.37-0.017-.01-0.232.3,0.016,0.011Zm-0.245.314-0.016-.011-0.234.3,0.016,0.011Zm-0.245.314-0.016-.011-0.244.313,0.017,0.01Zm-0.255.327-0.017-.01-0.244.313,0.016,0.011Zm-0.257.329-0.016-.011-0.245.314,0.014,0.013Zm-0.259.332-0.014-.013-0.246.316,0.016,0.011Zm-0.257.329-0.016-.011-0.236.3,0.015,0.011Zm-0.248.318-0.015-.011-0.234.3,0.016,0.011Zm-0.245.315-0.016-.011-0.255.327,0.017,0.01Zm-0.266.341-0.017-.01-0.2.254,0.015,0.012Zm-0.211.271-0.015-.012-0.2.254,0.014,0.013Zm-0.211.27-0.015-.013-0.106.136,0.015,0.012Z"/>
  <path fill="#000000" d="M-12.548,15.459a0.9,0.9,0,0,1-.195.019,1.423,1.423,0,0,1-.263-0.029,0.212,0.212,0,0,0,.11-0.086l-0.085-.012,0-.067,0.136,0,0.937-2.03a0.516,0.516,0,0,0,.119-0.012,0.7,0.7,0,0,1-.2-0.01c0.007-.019,1.014-2.246,1.042-2.295a0.209,0.209,0,0,1,.112-0.01l0.088-.574-0.078,0s0.173-1.207.151-1.241-1.344.031-2.239-.026a9.273,9.273,0,0,1-1.551-.2,0.206,0.206,0,0,0-.265.069c-0.068.076-1.227,1.614-1.327,1.743a0.22,0.22,0,0,1-.2.129l-0.591,0,0.531-2.14a0.835,0.835,0,0,1-.248-0.043,0.123,0.123,0,0,1-.019-0.1,3.978,3.978,0,0,1-.48-0.067,0.169,0.169,0,0,1-.044-0.065,2.129,2.129,0,0,1-.477-0.139h0a2.129,2.129,0,0,1,.477-0.139,0.169,0.169,0,0,1,.044-0.065,3.977,3.977,0,0,1,.48-0.067,0.123,0.123,0,0,1,.019-0.1,0.835,0.835,0,0,1,.248-0.043l-0.531-2.14,0.591,0a0.22,0.22,0,0,1,.2.129c0.1,0.129,1.258,1.666,1.327,1.743a0.205,0.205,0,0,0,.265.069,9.273,9.273,0,0,1,1.551-.2c0.9-.057,2.217.007,2.239-0.026s-0.151-1.241-.151-1.241l0.078,0-0.088-.574a0.209,0.209,0,0,1-.112-0.01C-10.981,5.572-11.988,3.345-12,3.326a0.7,0.7,0,0,1,.2-0.01A0.518,0.518,0,0,0-11.91,3.3l-0.937-2.03-0.136,0,0-.067,0.085-.012a0.212,0.212,0,0,0-.11-0.086,1.428,1.428,0,0,1,.263-0.029,0.9,0.9,0,0,1,.195.019s-0.022-.069.071-0.062a1.887,1.887,0,0,1,.329.184,0.229,0.229,0,0,0,.069.011,0.112,0.112,0,0,1,.073.058,0.137,0.137,0,0,0,.071,0s0.587,0.673,1.507,1.838,2.045,2.54,2.045,2.54a1.242,1.242,0,0,0,.156-0.013C-8.136,5.64-8.1,5.63-8.1,5.63a0.149,0.149,0,0,1,.081-0.089A3.467,3.467,0,0,1-7.37,5.5a2.013,2.013,0,0,1,.48.041,0.2,0.2,0,0,1,.078.166,3.411,3.411,0,0,1-.006.5,0.126,0.126,0,0,1-.133.137,6.1,6.1,0,0,1-.646.006,1.229,1.229,0,0,0-.243-0.019c-0.006.016,0.269,0.293,0.38,0.446a2.26,2.26,0,0,0,.412.446c0.071,0.032.081,0.035,0.016,0.054a0.233,0.233,0,0,1-.175-0.01,0.123,0.123,0,0,0-.13-0.013,0.218,0.218,0,0,0,.094.105,1.236,1.236,0,0,0,.146.013,0.552,0.552,0,0,0,.2.061C-6.429,7.419-5.735,7.4-4.216,7.4a11.133,11.133,0,0,1,2.979.214A2.683,2.683,0,0,1-.179,8a0.449,0.449,0,0,1,.188.273h0a0.449,0.449,0,0,1-.188.273,2.683,2.683,0,0,1-1.058.391,11.132,11.132,0,0,1-2.979.214c-1.519,0-2.213-.019-2.677-0.032a0.552,0.552,0,0,0-.2.061,1.239,1.239,0,0,0-.146.013,0.218,0.218,0,0,0-.094.105,0.123,0.123,0,0,0,.13-0.013,0.233,0.233,0,0,1,.175-0.01C-6.968,9.3-6.978,9.3-7.049,9.336a2.26,2.26,0,0,0-.412.446c-0.11.153-.386,0.43-0.38,0.446A1.232,1.232,0,0,0-7.6,10.209a6.073,6.073,0,0,1,.646.006,0.126,0.126,0,0,1,.133.137,3.412,3.412,0,0,1,.006.5,0.2,0.2,0,0,1-.078.166,2.011,2.011,0,0,1-.48.041,3.461,3.461,0,0,1-.646-0.045A0.149,0.149,0,0,1-8.1,10.926s-0.039-.01-0.13-0.022a1.238,1.238,0,0,0-.156-0.013s-1.126,1.377-2.045,2.54-1.507,1.838-1.507,1.838a0.138,0.138,0,0,0-.071,0,0.112,0.112,0,0,1-.073.058,0.228,0.228,0,0,0-.069.011,1.882,1.882,0,0,1-.329.184C-12.57,15.528-12.548,15.459-12.548,15.459Zm0.683-13.943-0.105-.135-0.015.012,0.106,0.136Zm0.211,0.27-0.2-.255-0.015.013,0.2,0.254Zm0.211,0.271-0.2-.256-0.015.012,0.2,0.254ZM-11.176,2.4l-0.254-.326-0.017.01,0.255,0.327Zm0.246,0.315-0.234-.3-0.016.011,0.234,0.3Zm0.248,0.318-0.236-.3-0.015.012,0.236,0.3Zm0.257,0.329-0.245-.314-0.016.011,0.246,0.316Zm0.259,0.332-0.247-.317-0.014.013L-10.183,3.7ZM-9.91,4.021l-0.245-.314-0.016.011,0.244,0.313Zm0.255,0.327L-9.9,4.036l-0.017.01,0.244,0.313ZM-9.41,4.662l-0.233-.3-0.016.011,0.234,0.3Zm0.245,0.314-0.233-.3-0.016.011,0.232,0.3Zm0.289,0.37-0.277-.354L-9.17,5-8.9,5.353Zm0.075,0.1-0.063-.081-0.018.008L-8.82,5.449Zm0.236,0.3-0.224-.287-0.019.008,0.227,0.291Zm0,5.067L-8.581,10.8l-0.227.291L-8.789,11.1Zm-0.236.3-0.019-.008-0.063.08L-8.865,11.2Zm-0.075.1L-8.9,11.2l-0.275.353,0.017,0.01Zm-0.289.37-0.017-.01-0.232.3L-9.4,11.88ZM-9.41,11.9l-0.016-.011-0.234.3,0.016,0.011Zm-0.245.314L-9.671,12.2l-0.244.313,0.017,0.01Zm-0.255.327-0.017-.01-0.244.313,0.016,0.011Zm-0.257.329-0.016-.011-0.245.314,0.014,0.013Zm-0.259.332-0.014-.013-0.246.316,0.016,0.011Zm-0.257.329-0.016-.011-0.236.3,0.015,0.011Zm-0.248.318-0.016-.011-0.234.3,0.016,0.011Zm-0.246.315-0.016-.011-0.255.327,0.017,0.01Zm-0.266.341-0.017-.01-0.2.254,0.015,0.012Zm-0.211.271-0.015-.012-0.2.254,0.015,0.013Zm-0.211.27-0.014-.013-0.106.136,0.015,0.012Z"/>
<animateTransform attributeName="transform" type="translate" from="0 0" to="199 0" dur="990ms" repeatCount="indefinite"/></g></svg>
