<?xml version="1.0" encoding="iso-8859-1"?>
<!-- Generator: Adobe Illustrator 19.0.0, SVG Export Plug-In . SVG Version: 6.00 Build 0)  -->
<svg version="1.1" id="Capa_1" xmlns="http://www.w3.org/2000/svg" x="0px" y="0px"
     viewBox="0 0 512.002 512.002" style="enable-background:new 0 0 512.002 512.002;" xml:space="preserve">
<g>
	<g>
		<path d="M486.401,307.202c14.132-0.015,25.585-11.468,25.6-25.6v-17.067c-0.015-14.132-11.468-25.585-25.6-25.6h-34.133v-8.533
			c-0.015-14.132-11.468-25.585-25.6-25.6h-17.067v-25.6h68.267c9.421-0.011,17.056-7.646,17.067-17.067V17.068
			c-0.011-9.421-7.645-17.056-17.067-17.067H290.134c-9.421,0.011-17.056,7.645-17.067,17.067v145.067
			c0.011,9.421,7.645,17.056,17.067,17.067h68.267v25.6h-17.067c-14.132,0.015-25.585,11.468-25.6,25.6v8.533h-59.733v-49.383
			c-0.104-12.424-6.773-23.866-17.533-30.079l-42.2-23.796v-7.317c5.549-7.015,9.776-14.981,12.475-23.508
			c0.229-1.144,0.795-2.193,1.625-3.012c4.353-4.247,6.818-10.064,6.842-16.146V72.277c-0.003-3.567-0.854-7.081-2.483-10.254
			l-0.8-1.562c-0.39-0.752-0.593-1.587-0.592-2.434V38.731c-0.259-21.609-17.957-38.933-39.567-38.729h-23.267
			c-21.61-0.204-39.308,17.12-39.567,38.729v19.296c0,0.849-0.203,1.687-0.592,2.442l-0.816,1.571
			c-1.618,3.17-2.463,6.678-2.467,10.237v13.417c-0.009,6.094,2.468,11.928,6.858,16.154c0.82,0.821,1.379,1.866,1.608,3.004
			c2.701,8.527,6.928,16.492,12.475,23.508v7.317l-42.317,23.867c-10.703,6.22-17.325,17.63-17.417,30.008v49.383H25.601
			c-14.132,0.015-25.585,11.468-25.6,25.6v17.067c0.015,14.132,11.468,25.585,25.6,25.6h8.533v136.533h-8.533
			c-14.132,0.015-25.585,11.468-25.6,25.6v17.067c0.015,14.132,11.468,25.585,25.6,25.6h460.8c14.132-0.015,25.585-11.468,25.6-25.6
			v-17.067c-0.015-14.132-11.468-25.585-25.6-25.6h-8.533V307.202H486.401z M290.134,162.135V17.068h187.733l0.009,145.067H290.134z
			 M392.534,179.202v25.6h-17.067v-25.6H392.534z M332.801,230.402c0.005-4.711,3.823-8.529,8.533-8.533h85.333
			c4.711,0.005,8.529,3.822,8.533,8.533v8.533h-102.4V230.402z M125.818,89.614c-1.075-1.022-1.686-2.438-1.692-3.921V72.277
			c0.003-0.849,0.202-1.687,0.583-2.446l0.8-1.545c1.635-3.173,2.489-6.69,2.492-10.259V38.731
			c0.248-12.188,10.312-21.876,22.5-21.662h23.267c12.188-0.214,22.252,9.475,22.5,21.662v19.296
			c0.002,3.567,0.856,7.081,2.492,10.25l0.783,1.537c0.392,0.762,0.598,1.606,0.6,2.463v13.417
			c-0.007,1.485-0.618,2.903-1.692,3.929c-3.262,3.183-5.494,7.272-6.409,11.737c-2.42,6.645-5.978,12.818-10.517,18.242
			c-1.508,2.078-2.321,4.578-2.325,7.145v9.788c0.297,4.611-1.405,9.127-4.673,12.394c-3.267,3.267-7.783,4.97-12.394,4.673
			c-4.62,0.295-9.143-1.416-12.411-4.695c-3.268-3.279-4.965-7.807-4.655-12.426v-9.734c-0.014-2.626-0.863-5.18-2.425-7.292
			c-4.499-5.38-8.024-11.504-10.417-18.096C131.311,96.892,129.079,92.801,125.818,89.614z M85.334,189.552
			c0.019-6.288,3.393-12.088,8.85-15.212l37.856-21.352c5.612,11.364,17.435,18.311,30.094,17.681
			c12.657,0.63,24.481-6.316,30.093-17.679l37.741,21.279c5.514,3.117,8.936,8.949,8.967,15.283v49.383h-153.6V189.552z
			 M486.401,460.802c4.711,0.005,8.529,3.822,8.533,8.533v17.067c-0.005,4.711-3.822,8.529-8.533,8.533h-460.8
			c-4.711-0.005-8.529-3.822-8.533-8.533v-17.067c0.005-4.711,3.822-8.529,8.533-8.533H486.401z M51.201,443.735V307.202h409.6
			v136.533H51.201z M25.601,290.135c-4.711-0.005-8.529-3.822-8.533-8.533v-17.067c0.005-4.711,3.822-8.529,8.533-8.533h460.8
			c4.711,0.005,8.529,3.822,8.533,8.533v17.067c-0.005,4.711-3.822,8.529-8.533,8.533H25.601z"/>
	</g>
</g>
<g>
</g>
<g>
</g>
<g>
</g>
<g>
</g>
<g>
</g>
<g>
</g>
<g>
</g>
<g>
</g>
<g>
</g>
<g>
</g>
<g>
</g>
<g>
</g>
<g>
</g>
<g>
</g>
<g>
</g>
</svg>
