 <svg version="1.0" xmlns="http://www.w3.org/2000/svg" width="700.000000pt" height="756.000000pt" viewBox="0 0 700.000000 756.000000" preserveAspectRatio="xMidYMid meet">
<metadata>
Created by potrace 1.12, written by Peter Selinger 2001-2015
</metadata>
<g transform="translate(0.000000,756.000000) scale(0.100000,-0.100000)" fill="#000000" stroke="none">
<path d="M2970 5569 c-119 -33 -225 -84 -289 -140 -46 -41 -131 -145 -131
-161 0 -5 -11 -25 -25 -45 -54 -80 -54 -79 -63 -1393 -8 -1029 -7 -1223 4
-1269 14 -53 32 -81 209 -336 46 -66 111 -160 144 -210 33 -49 87 -127 120
-171 33 -45 70 -99 82 -120 13 -22 37 -57 54 -79 17 -22 55 -75 84 -117 112
-165 174 -164 275 5 30 51 58 101 62 112 23 60 151 264 229 365 19 25 56 75
80 113 25 37 93 124 151 192 57 68 127 155 155 192 104 139 342 395 678 732
191 190 388 384 439 430 103 92 123 123 124 184 0 34 -5 46 -32 70 l-33 30
-126 -7 c-141 -8 -413 -66 -511 -109 -30 -13 -68 -27 -85 -31 -41 -10 -157
-70 -227 -117 -65 -44 -100 -49 -122 -17 -14 20 -16 97 -16 638 0 359 -5 644
-10 685 -24 160 -118 326 -239 419 -173 133 -388 187 -736 185 -122 -1 -154
-5 -245 -30z m608 -179 c218 -62 362 -185 362 -310 0 -35 -4 -43 -32 -60 -32
-19 -52 -20 -583 -20 -344 0 -564 4 -587 10 -29 8 -39 18 -48 45 -19 58 -5 96
63 162 165 161 299 206 592 198 123 -3 177 -9 233 -25z m327 -580 c23 -11 47
-32 53 -46 7 -14 12 -77 12 -150 0 -118 -1 -126 -24 -149 -14 -14 -41 -26 -67
-30 -24 -3 -296 -5 -604 -3 -506 3 -563 5 -591 20 -40 22 -44 38 -44 175 0
132 9 159 65 184 37 17 79 19 599 19 541 0 561 -1 601 -20z m-946 -598 l28
-28 6 -399 c4 -220 5 -441 3 -490 -3 -101 -23 -155 -64 -183 -14 -9 -60 -50
-101 -90 -117 -112 -163 -134 -181 -86 -15 38 -13 1202 1 1244 17 46 54 59
177 60 100 0 104 -1 131 -28z m484 17 c14 -6 30 -22 36 -36 8 -16 11 -192 11
-572 l0 -547 -44 -60 c-44 -58 -106 -104 -142 -104 -29 0 -91 49 -106 83 -10
26 -13 148 -13 602 0 534 1 573 18 598 10 16 28 32 40 37 32 13 172 12 200 -1z
m499 -17 c23 -22 23 -24 26 -355 2 -182 0 -343 -3 -356 -8 -33 -119 -147 -182
-187 -64 -42 -100 -44 -113 -8 -14 35 -13 818 1 866 15 56 45 69 156 66 81 -3
95 -6 115 -26z m931 -555 c12 -33 -40 -95 -305 -364 -156 -159 -321 -333 -367
-388 -45 -55 -125 -145 -176 -200 -52 -55 -106 -117 -122 -137 -15 -20 -47
-61 -71 -92 -23 -30 -69 -87 -101 -126 -33 -39 -84 -104 -113 -145 -37 -52
-67 -82 -99 -100 -45 -24 -52 -25 -242 -25 -114 0 -207 4 -224 11 -36 13 -79
53 -111 104 -13 22 -48 72 -77 110 -155 209 -176 256 -140 311 32 49 216 243
236 249 39 13 70 -6 179 -110 84 -80 117 -105 145 -111 78 -14 99 1 332 237
232 235 308 303 431 387 42 29 101 69 130 90 132 91 208 136 362 213 91 45
181 85 200 89 60 13 127 11 133 -3z m-1545 -1789 c31 -31 2 -128 -38 -128 -24
0 -70 55 -70 85 0 43 77 74 108 43z"></path>
</g>
</svg>