<svg width="300" height="300" xmlns="http://www.w3.org/2000/svg" preserveAspectRatio="xMidYMid meet">
 <metadata>Created by potrace 1.15, written by Peter Selinger 2001-2017</metadata>

 <g>
  <title>background</title>
  <rect fill="none" id="canvas_background" height="402" width="582" y="-1" x="-1"/>
 </g>
 <g>
  <title>Layer 1</title>
  <g id="svg_6">
   <path fill="#0019ff" id="svg_2" d="m146.732787,72.099996c-8.5,1.2 -20.4,5.5 -28.3,10.1c-9.1,5.3 -22,18.3 -27.4,27.5c-15.5,26.2 -14.4,59.800001 2.7,85.000001c6.7,9.8 23.8,25.3 26.4,23.7c0.4,-0.3 0.8,-0.1 0.8,0.4c0,1.8 19.6,9.3 23.9,9.1c0.9,0 -0.2,-0.7 -2.4,-1.6c-5.8,-2.4 -11.4,-6.4 -16.7,-12c-10.3,-11.1 -14.1,-26.1 -10.2,-40.800001c4.4,-17.1 20.5,-31.4 37.300001,-33.1l6.1,-0.7l0,-5.5l0,-5.5l-6.3,0.6c-17.4,1.6 -33.3,13.6 -40.400001,30.6c-2.5,6 -2.7,7.7 -2.7,19.1c0,10.7 0.3,13.3 2.2,17.9c3.7,8.8 8.2,14.7 17.7,23c2.8,2.4 4.3,4 3.5,3.6c-0.8,-0.5 -2.3,-1.5 -3.2,-2.3c-0.9,-0.7 -2.1,-1.1 -2.6,-0.8c-2.2,1.3 -17.8,-13.4 -22.7,-21.4c-8,-13.2 -11.3,-32 -8.1,-46.900001c2.6,-12.1 7.8,-21.3 17.6,-31.2c12,-12 22.6,-17.1 40.300001,-19.4l4.8,-0.6l-0.3,-5.2l-0.3,-5.2l-5.5,0.3c-25.9,1.4 -49.600001,19.6 -59.200001,45.400001c-2.6,7 -3.2,10.1 -3.6,20c-0.8,21.2 4.7,36.500001 18.7,51.100001c4.2,4.4 6.7,7.5 5.5,6.9c-3.6,-1.9 -15.1,-14.8 -18.9,-21.3c-2,-3.4 -4.8,-9.6 -6.3,-13.8c-2.5,-7 -2.7,-8.8 -2.7,-23.6c0,-15.6 0.1,-16.2 3.3,-24.4c5.7,-15.1 15.3,-27.3 28.2,-36.100001c10.3,-7 20.8,-10.7 35.800001,-12.5l5.2,-0.7l0,-5.4l0,-5.4l-3.2,0.1c-1.8,0.1 -5.9,0.5 -9,1z"/>
   <path fill="#0019ff" id="svg_3" d="m150.132787,110.199997c-40.000001,5.7 -62.400001,48.400001 -44.700001,85.600001c3.5,7.3 12.5,18 19,22.5c1.7,1.1 0.8,-0.1 -2.2,-3.1c-11.9,-11.6 -17.4,-24.3 -17.4,-40.000001c0,-11.8 2.3,-20.2 8,-28.8c9.3,-14.2 23.9,-23.5 39.600001,-25.2l6,-0.7l0,-5.4c0,-3 -0.4,-5.5 -1,-5.6c-0.5,-0.1 -3.8,0.2 -7.3,0.7z"/>
   <path fill="#0019ff" id="svg_4" d="m182.232788,124.599997c6.4,3.3 12.7,9.7 15.6,15.9c3.2,6.7 4,19.2 1.7,26.1c-4.2,12.4 -17,22.8 -29.1,23.6c-3.4,0.2 -3.5,0.3 -3.5,4.6l0,4.5l5,-0.6c7.7,-0.9 16,-5.2 21.8,-11c15.5,-15.8 15.6,-39.400001 0.4,-55.000001c-2.5,-2.6 -4.1,-4.7 -3.5,-4.7c2,0 11.6,11.4 14.1,16.8c7.5,16.5 4.2,35.300001 -8.5,48.000001c-6.3,6.3 -16.4,11.4 -24,12l-5.3,0.4l0,4.4c0,4.1 0.2,4.4 2.8,4.4c4.5,0 14.2,-2.9 19.4,-5.7c6.4,-3.5 15.9,-13.7 19.2,-20.6c8.2,-17.5 5.4,-37.100001 -7.6,-51.200001c-2.8,-3 -4.6,-5.5 -4,-5.5c1.9,0 11.1,11.1 14.1,17c1.6,3.3 3.5,8.6 4.1,11.7c1.7,8 0.8,21.5 -1.9,28.5c-6.5,16.7 -23.4,29.9 -40.300001,31.5l-5.8,0.6l0,4.3c0,4.1 0.2,4.4 2.8,4.4c1.5,0 5.6,-0.7 9.1,-1.5c18.8,-4.5 34.700001,-19.9 39.600001,-38.600001c2,-7.3 1.9,-22.2 -0.1,-29c-5,-16.9 -16.5,-29 -34.400001,-36.100001c-6.4,-2.6 -7.3,-2.1 -1.7,0.8z"/>
  </g>
 </g>
</svg>